{
	"asset":{
		"generator":"Khronos glTF Blender I/O v4.0.44",
		"version":"2.0"
	},
	"extensionsUsed":[
		"KHR_lights_punctual",
		"KHR_texture_transform"
	],
	"extensionsRequired":[
		"KHR_lights_punctual",
		"KHR_texture_transform"
	],
	"extensions":{
		"KHR_lights_punctual":{
			"lights":[
				{
					"color":[
						1,
						1,
						1
					],
					"intensity":63.66197723675813,
					"type":"point",
					"name":"Light"
				},
				{
					"color":[
						1,
						1,
						1
					],
					"intensity":63.66197723675813,
					"type":"point",
					"name":"Light.001"
				}
			]
		}
	},
	"scene":0,
	"scenes":[
		{
			"name":"Scene",
			"nodes":[
				0,
				1,
				2,
				25
			]
		}
	],
	"nodes":[
		{
			"extensions":{
				"KHR_lights_punctual":{
					"light":0
				}
			},
			"name":"Light",
			"rotation":[
				-0.28416627645492554,
				0.7269423007965088,
				0.34203392267227173,
				0.5232754945755005
			],
			"translation":[
				4.076245307922363,
				5.903861999511719,
				-1.0054539442062378
			]
		},
		{
			"mesh":0,
			"name":"Wall",
			"scale":[
				7.042649269104004,
				7.042649269104004,
				7.042649269104004
			]
		},
		{
			"extensions":{
				"KHR_lights_punctual":{
					"light":1
				}
			},
			"name":"Light.001",
			"rotation":[
				-0.28416627645492554,
				0.7269423007965088,
				0.34203392267227173,
				0.5232754945755005
			],
			"translation":[
				-3.749715805053711,
				5.903861999511719,
				-1.0054539442062378
			]
		},
		{
			"mesh":1,
			"name":"Back_low_lambert1_0"
		},
		{
			"children":[
				3
			],
			"name":"Back_low"
		},
		{
			"mesh":2,
			"name":"BackPlank_low_lambert1_0"
		},
		{
			"children":[
				5
			],
			"name":"BackPlank_low",
			"scale":[
				0.2598000168800354,
				0.2598000168800354,
				0.2598000168800354
			]
		},
		{
			"mesh":3,
			"name":"Bolt_low_lambert1_0"
		},
		{
			"children":[
				7
			],
			"name":"Bolt_low"
		},
		{
			"mesh":4,
			"name":"Bricks_low_lambert1_0"
		},
		{
			"children":[
				9
			],
			"name":"Bricks_low"
		},
		{
			"mesh":5,
			"name":"Door01_low_lambert1_0"
		},
		{
			"children":[
				11
			],
			"name":"Door01_low"
		},
		{
			"mesh":6,
			"name":"Door02_low_lambert1_0"
		},
		{
			"children":[
				13
			],
			"name":"Door02_low"
		},
		{
			"mesh":7,
			"name":"Handle_low_lambert1_0"
		},
		{
			"children":[
				15
			],
			"name":"Handle_low"
		},
		{
			"mesh":8,
			"name":"Hindge_low_lambert1_0"
		},
		{
			"children":[
				17
			],
			"name":"Hindge_low"
		},
		{
			"mesh":9,
			"name":"Knob_low_lambert1_0"
		},
		{
			"children":[
				19
			],
			"name":"Knob_low"
		},
		{
			"mesh":10,
			"name":"Metal_low_lambert1_0"
		},
		{
			"children":[
				21
			],
			"name":"Metal_low"
		},
		{
			"children":[
				4,
				6,
				8,
				10,
				12,
				14,
				16,
				18,
				20,
				22
			],
			"name":"Low",
			"scale":[
				3.8491148948669434,
				3.8491148948669434,
				3.849114418029785
			]
		},
		{
			"children":[
				23
			],
			"name":"RootNode"
		},
		{
			"children":[
				24
			],
			"name":"Door",
			"scale":[
				0.02500000037252903,
				0.02500000037252903,
				0.019999999552965164
			],
			"translation":[
				0,
				0,
				-0.33359891176223755
			]
		}
	],
	"materials":[
		{
			"doubleSided":true,
			"name":"Material.001",
			"pbrMetallicRoughness":{
				"baseColorTexture":{
					"extensions":{
						"KHR_texture_transform":{
							"offset":[
								0,
								-29
							],
							"scale":[
								30,
								30
							]
						}
					},
					"index":0
				},
				"metallicFactor":0,
				"roughnessFactor":0.5
			}
		},
		{
			"doubleSided":true,
			"name":"lambert1",
			"normalTexture":{
				"index":1
			},
			"pbrMetallicRoughness":{
				"baseColorTexture":{
					"index":2
				},
				"metallicRoughnessTexture":{
					"index":3
				}
			}
		}
	],
	"meshes":[
		{
			"name":"Plane",
			"primitives":[
				{
					"attributes":{
						"POSITION":0,
						"NORMAL":1,
						"TEXCOORD_0":2
					},
					"indices":3,
					"material":0
				}
			]
		},
		{
			"name":"Back_low_lambert1_0",
			"primitives":[
				{
					"attributes":{
						"POSITION":4,
						"NORMAL":5,
						"TEXCOORD_0":6
					},
					"indices":7,
					"material":1
				}
			]
		},
		{
			"name":"BackPlank_low_lambert1_0",
			"primitives":[
				{
					"attributes":{
						"POSITION":8,
						"NORMAL":9,
						"TEXCOORD_0":10
					},
					"indices":11,
					"material":1
				}
			]
		},
		{
			"name":"Bolt_low_lambert1_0",
			"primitives":[
				{
					"attributes":{
						"POSITION":12,
						"NORMAL":13,
						"TEXCOORD_0":14
					},
					"indices":15,
					"material":1
				}
			]
		},
		{
			"name":"Bricks_low_lambert1_0",
			"primitives":[
				{
					"attributes":{
						"POSITION":16,
						"NORMAL":17,
						"TEXCOORD_0":18
					},
					"indices":19,
					"material":1
				}
			]
		},
		{
			"name":"Door01_low_lambert1_0",
			"primitives":[
				{
					"attributes":{
						"POSITION":20,
						"NORMAL":21,
						"TEXCOORD_0":22
					},
					"indices":23,
					"material":1
				}
			]
		},
		{
			"name":"Door02_low_lambert1_0",
			"primitives":[
				{
					"attributes":{
						"POSITION":24,
						"NORMAL":25,
						"TEXCOORD_0":26
					},
					"indices":27,
					"material":1
				}
			]
		},
		{
			"name":"Handle_low_lambert1_0",
			"primitives":[
				{
					"attributes":{
						"POSITION":28,
						"NORMAL":29,
						"TEXCOORD_0":30
					},
					"indices":31,
					"material":1
				}
			]
		},
		{
			"name":"Hindge_low_lambert1_0",
			"primitives":[
				{
					"attributes":{
						"POSITION":32,
						"NORMAL":33,
						"TEXCOORD_0":34
					},
					"indices":35,
					"material":1
				}
			]
		},
		{
			"name":"Knob_low_lambert1_0",
			"primitives":[
				{
					"attributes":{
						"POSITION":36,
						"NORMAL":37,
						"TEXCOORD_0":38
					},
					"indices":39,
					"material":1
				}
			]
		},
		{
			"name":"Metal_low_lambert1_0",
			"primitives":[
				{
					"attributes":{
						"POSITION":40,
						"NORMAL":41,
						"TEXCOORD_0":42
					},
					"indices":43,
					"material":1
				}
			]
		}
	],
	"textures":[
		{
			"sampler":0,
			"source":0
		},
		{
			"sampler":0,
			"source":1
		},
		{
			"sampler":0,
			"source":2
		},
		{
			"sampler":0,
			"source":3
		}
	],
	"images":[
		{
			"mimeType":"image/png",
			"name":"TCom_Brick_CinderblocksPainted2_4K_roughness",
			"uri":"TCom_Brick_CinderblocksPainted2_4K_roughness.png"
		},
		{
			"mimeType":"image/png",
			"name":"lambert1_normal",
			"uri":"lambert1_normal.png"
		},
		{
			"mimeType":"image/png",
			"name":"lambert1_baseColor",
			"uri":"lambert1_baseColor.png"
		},
		{
			"mimeType":"image/png",
			"name":"lambert1_metallicRoughness",
			"uri":"lambert1_metallicRoughness.png"
		}
	],
	"accessors":[
		{
			"bufferView":0,
			"componentType":5126,
			"count":13016,
			"max":[
				1,
				0.10000000149011612,
				1
			],
			"min":[
				-1,
				0,
				-1
			],
			"type":"VEC3"
		},
		{
			"bufferView":1,
			"componentType":5126,
			"count":13016,
			"type":"VEC3"
		},
		{
			"bufferView":2,
			"componentType":5126,
			"count":13016,
			"type":"VEC2"
		},
		{
			"bufferView":3,
			"componentType":5123,
			"count":27354,
			"type":"SCALAR"
		},
		{
			"bufferView":4,
			"componentType":5126,
			"count":102,
			"max":[
				1.481804370880127,
				5.074018478393555,
				-0.05270722880959511
			],
			"min":[
				-1.4818040132522583,
				0.3145761489868164,
				-0.15467341244220734
			],
			"type":"VEC3"
		},
		{
			"bufferView":5,
			"componentType":5126,
			"count":102,
			"type":"VEC3"
		},
		{
			"bufferView":6,
			"componentType":5126,
			"count":102,
			"type":"VEC2"
		},
		{
			"bufferView":7,
			"componentType":5123,
			"count":264,
			"type":"SCALAR"
		},
		{
			"bufferView":8,
			"componentType":5126,
			"count":40,
			"max":[
				4.112470626831055,
				12.758489608764648,
				-0.22138643264770508
			],
			"min":[
				-4.105680465698242,
				6.007530689239502,
				-0.5609945058822632
			],
			"type":"VEC3"
		},
		{
			"bufferView":9,
			"componentType":5126,
			"count":40,
			"type":"VEC3"
		},
		{
			"bufferView":10,
			"componentType":5126,
			"count":40,
			"type":"VEC2"
		},
		{
			"bufferView":11,
			"componentType":5123,
			"count":60,
			"type":"SCALAR"
		},
		{
			"bufferView":12,
			"componentType":5126,
			"count":264,
			"max":[
				0.4908471703529358,
				3.593554735183716,
				0.11122339963912964
			],
			"min":[
				-0.984312891960144,
				1.7558486461639404,
				0.09993818402290344
			],
			"type":"VEC3"
		},
		{
			"bufferView":13,
			"componentType":5126,
			"count":264,
			"type":"VEC3"
		},
		{
			"bufferView":14,
			"componentType":5126,
			"count":264,
			"type":"VEC2"
		},
		{
			"bufferView":15,
			"componentType":5123,
			"count":1344,
			"type":"SCALAR"
		},
		{
			"bufferView":16,
			"componentType":5126,
			"count":696,
			"max":[
				1.9657588005065918,
				5.538412570953369,
				0.25491562485694885
			],
			"min":[
				-1.9657572507858276,
				0.005545616615563631,
				-0.2549155652523041
			],
			"type":"VEC3"
		},
		{
			"bufferView":17,
			"componentType":5126,
			"count":696,
			"type":"VEC3"
		},
		{
			"bufferView":18,
			"componentType":5126,
			"count":696,
			"type":"VEC2"
		},
		{
			"bufferView":19,
			"componentType":5123,
			"count":2064,
			"type":"SCALAR"
		},
		{
			"bufferView":20,
			"componentType":5126,
			"count":64,
			"max":[
				0.7152004837989807,
				4.675512790679932,
				0.0651654452085495
			],
			"min":[
				-0.7152005434036255,
				0.3586235046386719,
				-0.0651654452085495
			],
			"type":"VEC3"
		},
		{
			"bufferView":21,
			"componentType":5126,
			"count":64,
			"type":"VEC3"
		},
		{
			"bufferView":22,
			"componentType":5126,
			"count":64,
			"type":"VEC2"
		},
		{
			"bufferView":23,
			"componentType":5123,
			"count":120,
			"type":"SCALAR"
		},
		{
			"bufferView":24,
			"componentType":5126,
			"count":98,
			"max":[
				1.195200800895691,
				4.690212249755859,
				0.0651654526591301
			],
			"min":[
				-1.195200800895691,
				0.3586235046386719,
				-0.0651654526591301
			],
			"type":"VEC3"
		},
		{
			"bufferView":25,
			"componentType":5126,
			"count":98,
			"type":"VEC3"
		},
		{
			"bufferView":26,
			"componentType":5126,
			"count":98,
			"type":"VEC2"
		},
		{
			"bufferView":27,
			"componentType":5123,
			"count":180,
			"type":"SCALAR"
		},
		{
			"bufferView":28,
			"componentType":5126,
			"count":263,
			"max":[
				0.8384898900985718,
				2.4921371936798096,
				0.1517442911863327
			],
			"min":[
				0.573949933052063,
				2.2211170196533203,
				0.08210816979408264
			],
			"type":"VEC3"
		},
		{
			"bufferView":29,
			"componentType":5126,
			"count":263,
			"type":"VEC3"
		},
		{
			"bufferView":30,
			"componentType":5126,
			"count":263,
			"type":"VEC2"
		},
		{
			"bufferView":31,
			"componentType":5123,
			"count":1152,
			"type":"SCALAR"
		},
		{
			"bufferView":32,
			"componentType":5126,
			"count":56,
			"max":[
				-1.1732792854309082,
				3.6695332527160645,
				0.11028444021940231
			],
			"min":[
				-1.234593391418457,
				1.6886162757873535,
				0.05718489736318588
			],
			"type":"VEC3"
		},
		{
			"bufferView":33,
			"componentType":5126,
			"count":56,
			"type":"VEC3"
		},
		{
			"bufferView":34,
			"componentType":5126,
			"count":56,
			"type":"VEC2"
		},
		{
			"bufferView":35,
			"componentType":5123,
			"count":144,
			"type":"SCALAR"
		},
		{
			"bufferView":36,
			"componentType":5126,
			"count":87,
			"max":[
				0.825843095779419,
				2.60657000541687,
				0.08592668920755386
			],
			"min":[
				0.5691813230514526,
				2.3499081134796143,
				0.06373818218708038
			],
			"type":"VEC3"
		},
		{
			"bufferView":37,
			"componentType":5126,
			"count":87,
			"type":"VEC3"
		},
		{
			"bufferView":38,
			"componentType":5126,
			"count":87,
			"type":"VEC2"
		},
		{
			"bufferView":39,
			"componentType":5123,
			"count":252,
			"type":"SCALAR"
		},
		{
			"bufferView":40,
			"componentType":5126,
			"count":220,
			"max":[
				1.0414339303970337,
				3.662755012512207,
				0.10042697191238403
			],
			"min":[
				-1.2222529649734497,
				1.693671464920044,
				-0.05746451020240784
			],
			"type":"VEC3"
		},
		{
			"bufferView":41,
			"componentType":5126,
			"count":220,
			"type":"VEC3"
		},
		{
			"bufferView":42,
			"componentType":5126,
			"count":220,
			"type":"VEC2"
		},
		{
			"bufferView":43,
			"componentType":5123,
			"count":600,
			"type":"SCALAR"
		}
	],
	"bufferViews":[
		{
			"buffer":0,
			"byteLength":156192,
			"byteOffset":0,
			"target":34962
		},
		{
			"buffer":0,
			"byteLength":156192,
			"byteOffset":156192,
			"target":34962
		},
		{
			"buffer":0,
			"byteLength":104128,
			"byteOffset":312384,
			"target":34962
		},
		{
			"buffer":0,
			"byteLength":54708,
			"byteOffset":416512,
			"target":34963
		},
		{
			"buffer":0,
			"byteLength":1224,
			"byteOffset":471220,
			"target":34962
		},
		{
			"buffer":0,
			"byteLength":1224,
			"byteOffset":472444,
			"target":34962
		},
		{
			"buffer":0,
			"byteLength":816,
			"byteOffset":473668,
			"target":34962
		},
		{
			"buffer":0,
			"byteLength":528,
			"byteOffset":474484,
			"target":34963
		},
		{
			"buffer":0,
			"byteLength":480,
			"byteOffset":475012,
			"target":34962
		},
		{
			"buffer":0,
			"byteLength":480,
			"byteOffset":475492,
			"target":34962
		},
		{
			"buffer":0,
			"byteLength":320,
			"byteOffset":475972,
			"target":34962
		},
		{
			"buffer":0,
			"byteLength":120,
			"byteOffset":476292,
			"target":34963
		},
		{
			"buffer":0,
			"byteLength":3168,
			"byteOffset":476412,
			"target":34962
		},
		{
			"buffer":0,
			"byteLength":3168,
			"byteOffset":479580,
			"target":34962
		},
		{
			"buffer":0,
			"byteLength":2112,
			"byteOffset":482748,
			"target":34962
		},
		{
			"buffer":0,
			"byteLength":2688,
			"byteOffset":484860,
			"target":34963
		},
		{
			"buffer":0,
			"byteLength":8352,
			"byteOffset":487548,
			"target":34962
		},
		{
			"buffer":0,
			"byteLength":8352,
			"byteOffset":495900,
			"target":34962
		},
		{
			"buffer":0,
			"byteLength":5568,
			"byteOffset":504252,
			"target":34962
		},
		{
			"buffer":0,
			"byteLength":4128,
			"byteOffset":509820,
			"target":34963
		},
		{
			"buffer":0,
			"byteLength":768,
			"byteOffset":513948,
			"target":34962
		},
		{
			"buffer":0,
			"byteLength":768,
			"byteOffset":514716,
			"target":34962
		},
		{
			"buffer":0,
			"byteLength":512,
			"byteOffset":515484,
			"target":34962
		},
		{
			"buffer":0,
			"byteLength":240,
			"byteOffset":515996,
			"target":34963
		},
		{
			"buffer":0,
			"byteLength":1176,
			"byteOffset":516236,
			"target":34962
		},
		{
			"buffer":0,
			"byteLength":1176,
			"byteOffset":517412,
			"target":34962
		},
		{
			"buffer":0,
			"byteLength":784,
			"byteOffset":518588,
			"target":34962
		},
		{
			"buffer":0,
			"byteLength":360,
			"byteOffset":519372,
			"target":34963
		},
		{
			"buffer":0,
			"byteLength":3156,
			"byteOffset":519732,
			"target":34962
		},
		{
			"buffer":0,
			"byteLength":3156,
			"byteOffset":522888,
			"target":34962
		},
		{
			"buffer":0,
			"byteLength":2104,
			"byteOffset":526044,
			"target":34962
		},
		{
			"buffer":0,
			"byteLength":2304,
			"byteOffset":528148,
			"target":34963
		},
		{
			"buffer":0,
			"byteLength":672,
			"byteOffset":530452,
			"target":34962
		},
		{
			"buffer":0,
			"byteLength":672,
			"byteOffset":531124,
			"target":34962
		},
		{
			"buffer":0,
			"byteLength":448,
			"byteOffset":531796,
			"target":34962
		},
		{
			"buffer":0,
			"byteLength":288,
			"byteOffset":532244,
			"target":34963
		},
		{
			"buffer":0,
			"byteLength":1044,
			"byteOffset":532532,
			"target":34962
		},
		{
			"buffer":0,
			"byteLength":1044,
			"byteOffset":533576,
			"target":34962
		},
		{
			"buffer":0,
			"byteLength":696,
			"byteOffset":534620,
			"target":34962
		},
		{
			"buffer":0,
			"byteLength":504,
			"byteOffset":535316,
			"target":34963
		},
		{
			"buffer":0,
			"byteLength":2640,
			"byteOffset":535820,
			"target":34962
		},
		{
			"buffer":0,
			"byteLength":2640,
			"byteOffset":538460,
			"target":34962
		},
		{
			"buffer":0,
			"byteLength":1760,
			"byteOffset":541100,
			"target":34962
		},
		{
			"buffer":0,
			"byteLength":1200,
			"byteOffset":542860,
			"target":34963
		}
	],
	"samplers":[
		{
			"magFilter":9729,
			"minFilter":9987
		}
	],
	"buffers":[
		{
			"byteLength":544060,
			"uri":"level.bin"
		}
	]
}
